<?xml version="1.0" standalone="no"?>
<!DOCTYPE svg PUBLIC "-//W3C//DTD SVG 20010904//EN"
 "http://www.w3.org/TR/2001/REC-SVG-20010904/DTD/svg10.dtd">
<svg version="1.0" xmlns="http://www.w3.org/2000/svg"
 width="114.000000pt" height="114.000000pt" viewBox="0 0 114.000000 114.000000"
 preserveAspectRatio="xMidYMid meet">
<metadata>
Created by potrace 1.11, written by Peter Selinger 2001-2013
</metadata>
<g transform="translate(0.000000,114.000000) scale(0.100000,-0.100000)"
fill="#000000" stroke="none">
<path d="M0 570 l0 -570 570 0 570 0 0 570 0 570 -570 0 -570 0 0 -570z m882
108 c-33 -134 -66 -269 -73 -301 -10 -45 -16 -57 -28 -54 -86 24 -291 92 -291
97 0 3 54 69 119 148 66 78 123 148 127 155 8 12 -19 -10 -211 -172 -55 -46
-108 -91 -117 -99 -14 -12 -31 -9 -130 26 -62 22 -122 44 -132 48 -15 6 78 56
385 210 222 111 405 198 407 194 2 -5 -24 -118 -56 -252z m-324 -349 c12 -5
22 -12 22 -16 0 -8 -81 -133 -86 -133 -2 0 -4 39 -4 86 0 94 -5 90 68 63z"/>
</g>
</svg>
